<svg width="163" height="86" viewBox="0 0 163 86" fill="none" xmlns="http://www.w3.org/2000/svg">
<g clip-path="url(#clip0)">
<path d="M123.987 51.1301L161.851 51.1013V83.1608H125.686" stroke="#3B82F6" stroke-width="3" stroke-miterlimit="85.5329" stroke-linecap="round" stroke-linejoin="round"/>
<path d="M37.9523 83.1321H1.15417V51.1013H40.0542" stroke="#3B82F6" stroke-width="3" stroke-miterlimit="85.5329" stroke-linecap="round" stroke-linejoin="round"/>
<path d="M50.7342 51.5549H51.598L54.247 58.6856H53.1529L51.1661 52.9351L49.1794 58.6856H48.0852L50.7342 51.5549ZM49.3233 56.1841H53.0953V57.133H49.3233V56.1841Z" fill="white"/>
<path d="M56.1475 58.4547C55.7731 58.2247 55.4852 57.9372 55.2836 57.5346C55.0821 57.1321 54.9669 56.6721 54.9669 56.1258V54.1705C54.9669 53.653 55.0821 53.1642 55.2836 52.7617C55.4852 52.3591 55.7731 52.0428 56.1475 51.8128C56.5218 51.5828 56.9537 51.4678 57.4432 51.4678C57.8463 51.4678 58.2206 51.554 58.5661 51.7265C58.9116 51.8991 59.1996 52.1578 59.4299 52.4741C59.6603 52.7904 59.8042 53.1642 59.8906 53.5955H58.8541C58.7965 53.3655 58.6813 53.1642 58.5373 52.9917C58.3934 52.8192 58.2206 52.6754 58.019 52.5891C57.8175 52.5029 57.6159 52.4454 57.4144 52.4454C57.1264 52.4454 56.8673 52.5029 56.6369 52.6466C56.4066 52.7904 56.2338 52.9917 56.1187 53.2505C56.0035 53.5092 55.9459 53.7968 55.9459 54.1418V56.097C55.9459 56.442 56.0035 56.7296 56.1187 56.9883C56.2338 57.2471 56.4066 57.4484 56.6369 57.5922C56.8673 57.7359 57.1264 57.7934 57.4144 57.7934C57.6159 57.7934 57.8175 57.7359 58.019 57.6497C58.2206 57.5634 58.3934 57.4196 58.5373 57.2471C58.6813 57.0746 58.7965 56.8733 58.8541 56.6146H59.8906C59.8042 57.0458 59.6603 57.4196 59.4299 57.7359C59.1996 58.0522 58.9116 58.311 58.5661 58.4835C58.2206 58.656 57.8463 58.7423 57.4432 58.7423C56.9537 58.771 56.5218 58.6848 56.1475 58.4547Z" fill="white"/>
<path d="M62.194 58.4547C61.8196 58.2247 61.5317 57.9372 61.3302 57.5346C61.1286 57.1321 61.0134 56.6721 61.0134 56.1258V54.1705C61.0134 53.653 61.1286 53.1642 61.3302 52.7617C61.5317 52.3591 61.8196 52.0428 62.194 51.8128C62.5683 51.5828 63.0002 51.4678 63.4897 51.4678C63.8928 51.4678 64.2671 51.554 64.6126 51.7265C64.9581 51.8991 65.2461 52.1578 65.4764 52.4741C65.7068 52.7904 65.8507 53.1642 65.9371 53.5955H64.9005C64.843 53.3655 64.7278 53.1642 64.5838 52.9917C64.4399 52.8192 64.2671 52.6754 64.0655 52.5891C63.864 52.5029 63.6624 52.4454 63.4609 52.4454C63.1729 52.4454 62.9138 52.5029 62.6835 52.6466C62.4531 52.7904 62.2803 52.9917 62.1652 53.2505C62.05 53.5092 61.9924 53.7968 61.9924 54.1418V56.097C61.9924 56.442 62.05 56.7296 62.1652 56.9883C62.2803 57.2471 62.4531 57.4484 62.6835 57.5922C62.9138 57.7359 63.1729 57.7934 63.4609 57.7934C63.6624 57.7934 63.864 57.7359 64.0655 57.6497C64.2671 57.5634 64.4399 57.4196 64.5838 57.2471C64.7278 57.0746 64.843 56.8733 64.9005 56.6146H65.9371C65.8507 57.0458 65.7068 57.4196 65.4764 57.7359C65.2461 58.0522 64.9581 58.311 64.6126 58.4835C64.2671 58.656 63.8928 58.7423 63.4897 58.7423C63.0002 58.771 62.5683 58.6848 62.194 58.4547Z" fill="white"/>
<path d="M68.2407 58.4548C67.8664 58.2248 67.5784 57.9373 67.3481 57.5348C67.1465 57.1322 67.0314 56.6722 67.0314 56.1546V54.1419C67.0314 53.6244 67.1465 53.1643 67.3481 52.7618C67.5497 52.3592 67.8376 52.0429 68.2407 51.8417C68.615 51.6117 69.0469 51.5254 69.5652 51.5254C70.0547 51.5254 70.5154 51.6404 70.8897 51.8417C71.264 52.0717 71.5519 52.3592 71.7823 52.7618C71.9839 53.1643 72.099 53.6244 72.099 54.1419V56.1546C72.099 56.6722 71.9839 57.1322 71.7823 57.5348C71.5807 57.9373 71.2928 58.2536 70.8897 58.4548C70.5154 58.6849 70.0835 58.7711 69.5652 58.7711C69.0757 58.7711 68.615 58.6849 68.2407 58.4548ZM70.3426 57.5923C70.573 57.4485 70.7457 57.276 70.8609 57.0172C70.9761 56.7872 71.0337 56.4996 71.0337 56.1834V54.0844C71.0337 53.7681 70.9761 53.4806 70.8609 53.2506C70.7457 53.0205 70.573 52.8193 70.3426 52.6755C70.1123 52.5317 69.8531 52.4742 69.5652 52.4742C69.2773 52.4742 69.0181 52.5317 68.7878 52.6755C68.5574 52.8193 68.3847 52.9918 68.2695 53.2506C68.1543 53.4806 68.0967 53.7681 68.0967 54.0844V56.1834C68.0967 56.4996 68.1543 56.7872 68.2695 57.0172C68.3847 57.2472 68.5574 57.4485 68.7878 57.5923C69.0181 57.736 69.2773 57.7935 69.5652 57.7935C69.8531 57.7935 70.1123 57.736 70.3426 57.5923Z" fill="white"/>
<path d="M73.5963 51.554H74.6041V58.6847H73.5963V51.554ZM74.2298 57.7646H78.9807V58.7134H74.2298V57.7646ZM77.6562 51.554H78.664V58.6847H77.6562V51.554ZM78.6352 57.7646H79.643V60.2086H78.6352V57.7646Z" fill="white"/>
<path d="M85.2 58.7135V53.1067L85.3152 53.2217L81.716 58.7135H80.9098V51.5828H81.9176V57.2758L81.8024 57.1608L85.4016 51.5828H86.2078V58.7135H85.2Z" fill="white"/>
<path d="M89.807 51.554H90.6708L93.3198 58.6847H92.2256L90.2389 52.9341L88.2521 58.6847H87.158L89.807 51.554ZM88.3961 56.1832H92.168V57.132H88.3961V56.1832Z" fill="white"/>
<path d="M94.3851 51.554H95.3929V58.6847H94.3851V51.554ZM95.0186 57.7646H99.7695V58.7134H95.0186V57.7646ZM98.4738 51.554H99.4816V58.6847H98.4738V51.554ZM99.424 57.7646H100.432V60.2086H99.424V57.7646Z" fill="white"/>
<path d="M105.989 58.7135V53.1067L106.104 53.2217L102.505 58.7135H101.67V51.5828H102.678V57.2758L102.563 57.1608L106.162 51.5828H106.968V58.7135H105.989Z" fill="white"/>
<path d="M110.279 55.3781L111.287 55.6081L109.559 58.7134H108.379L110.279 55.3781ZM109.387 55.5794C109.07 55.4068 108.839 55.1481 108.667 54.8318C108.494 54.5155 108.408 54.1417 108.408 53.7104C108.408 53.2791 108.494 52.9053 108.667 52.5891C108.839 52.2728 109.07 52.014 109.387 51.8415C109.703 51.669 110.049 51.5827 110.481 51.5827H112.842V52.5316H110.452C110.25 52.5316 110.078 52.5891 109.934 52.6753C109.79 52.7616 109.675 52.9053 109.588 53.0779C109.502 53.2504 109.473 53.4516 109.473 53.7104C109.473 53.9692 109.502 54.1417 109.588 54.343C109.675 54.5443 109.79 54.6593 109.934 54.7455C110.078 54.8318 110.25 54.8893 110.452 54.8893H112.842V55.8381H110.481C110.078 55.8381 109.703 55.7519 109.387 55.5794ZM112.266 51.554H113.274V58.7134H112.266V51.554Z" fill="white"/>
<path d="M12.0358 64.3777H12.986V71.5084H12.007V66.1604L12.0646 66.4766L10.3082 70.5308H9.61711L7.86071 66.5917L7.9183 66.1891V71.5372H6.91052V64.4064H7.86071L9.96263 69.1219L12.0358 64.3777Z" fill="white"/>
<path d="M14.6847 64.3777H15.6925V71.5084H14.6847V64.3777ZM15.1742 64.3777H19.2917V65.3265H15.1742V64.3777ZM15.1742 67.5117H18.7446V68.4606H15.1742V67.5117ZM15.1742 70.5883H19.2917V71.5371H15.1742V70.5883Z" fill="white"/>
<path d="M20.0692 64.3777H25.1081V65.3265H20.0692V64.3777ZM22.0848 64.9815H23.0925V71.5371H22.0848V64.9815Z" fill="white"/>
<path d="M27.5555 64.3777H28.4193L31.0683 71.5084H29.9742L27.9874 65.7578L26.0006 71.5084H24.9065L27.5555 64.3777ZM26.1158 69.0069H29.8878V69.9557H26.1158V69.0069Z" fill="white"/>
<path d="M31.8744 70.5883C32.1623 70.5883 32.3927 70.5308 32.5654 70.387C32.7382 70.2433 32.8822 70.042 32.9685 69.7545C33.0549 69.4669 33.0837 69.1219 33.0837 68.6619V64.3777H34.0915V68.6044C34.0915 69.2944 34.0051 69.8407 33.8611 70.272C33.7172 70.7033 33.4868 71.0196 33.1701 71.2209C32.8534 71.4221 32.4503 71.5371 31.9608 71.5371H31.8744V70.5883ZM33.7172 64.3777H37.1436V65.3265H33.7172V64.3777ZM36.6253 64.3777H37.6331V71.5084H36.6253V64.3777Z" fill="white"/>
<path d="M38.9288 70.5883C39.2168 70.5883 39.4471 70.5308 39.6199 70.387C39.7926 70.2433 39.9366 70.042 40.023 69.7545C40.1094 69.4669 40.1382 69.1219 40.1382 68.6619V64.3777H41.1459V68.6044C41.1459 69.2944 41.0596 69.8407 40.9156 70.272C40.7716 70.7033 40.5413 71.0196 40.2245 71.2209C39.9078 71.4221 39.5047 71.5371 39.0152 71.5371H38.9288V70.5883ZM40.8004 64.3777H44.2268V65.3265H40.8004V64.3777ZM43.6798 64.3777H44.6875V71.5084H43.6798V64.3777Z" fill="white"/>
<path d="M47.4518 71.2783C47.0774 71.0483 46.7895 70.7608 46.5592 70.3582C46.3576 69.9557 46.2424 69.4956 46.2424 68.9781V66.9654C46.2424 66.4478 46.3576 65.9878 46.5592 65.5853C46.7607 65.1827 47.0486 64.8664 47.4518 64.6652C47.8261 64.4351 48.258 64.3489 48.7763 64.3489C49.2658 64.3489 49.7264 64.4639 50.1008 64.6652C50.4751 64.8952 50.763 65.1827 50.9934 65.5853C51.1949 65.9878 51.3101 66.4478 51.3101 66.9654V68.9781C51.3101 69.4956 51.1949 69.9557 50.9934 70.3582C50.7918 70.7608 50.5039 71.0771 50.1008 71.2783C49.7264 71.5083 49.2945 71.5946 48.7763 71.5946C48.258 71.5946 47.8261 71.5083 47.4518 71.2783ZM49.5537 70.4157C49.784 70.272 49.9568 70.0995 50.072 69.8407C50.1871 69.6107 50.2447 69.3231 50.2447 69.0068V66.9079C50.2447 66.5916 50.1871 66.3041 50.072 66.0741C49.9568 65.844 49.784 65.6428 49.5537 65.499C49.3233 65.3552 49.0642 65.2977 48.7763 65.2977C48.4883 65.2977 48.2292 65.3552 47.9988 65.499C47.7685 65.6428 47.5957 65.8153 47.4806 66.0741C47.3654 66.3041 47.3078 66.5916 47.3078 66.9079V69.0068C47.3078 69.3231 47.3654 69.6107 47.4806 69.8407C47.5957 70.0707 47.7685 70.272 47.9988 70.4157C48.2292 70.5595 48.4883 70.617 48.7763 70.617C49.0642 70.617 49.3233 70.5595 49.5537 70.4157Z" fill="white"/>
<path d="M53.6999 71.2783C53.3256 71.0483 53.0377 70.7608 52.8073 70.3582C52.6058 69.9557 52.4906 69.4956 52.4906 68.9781V66.9654C52.4906 66.4478 52.6058 65.9878 52.8073 65.5853C53.0089 65.1827 53.2968 64.8664 53.6999 64.6652C54.0742 64.4351 54.5061 64.3489 55.0244 64.3489C55.5139 64.3489 55.9746 64.4639 56.3489 64.6652C56.7232 64.8952 57.0112 65.1827 57.2415 65.5853C57.4431 65.9878 57.5583 66.4478 57.5583 66.9654V68.9781C57.5583 69.4956 57.4431 69.9557 57.2415 70.3582C57.04 70.7608 56.752 71.0771 56.3489 71.2783C55.9746 71.5083 55.5427 71.5946 55.0244 71.5946C54.5061 71.5946 54.0742 71.5083 53.6999 71.2783ZM55.8019 70.4157C56.0322 70.272 56.205 70.0995 56.3201 69.8407C56.4353 69.6107 56.4929 69.3231 56.4929 69.0068V66.9079C56.4929 66.5916 56.4353 66.3041 56.3201 66.0741C56.205 65.844 56.0322 65.6428 55.8019 65.499C55.5715 65.3552 55.3124 65.2977 55.0244 65.2977C54.7365 65.2977 54.4773 65.3552 54.247 65.499C54.0167 65.6428 53.8439 65.8153 53.7287 66.0741C53.6135 66.3041 53.556 66.5916 53.556 66.9079V69.0068C53.556 69.3231 53.6135 69.6107 53.7287 69.8407C53.8439 70.0707 54.0167 70.272 54.247 70.4157C54.4773 70.5595 54.7365 70.617 55.0244 70.617C55.3124 70.617 55.5715 70.5595 55.8019 70.4157Z" fill="white"/>
<path d="M58.9979 64.3777H60.0057V71.5084H58.9979V64.3777ZM59.4874 64.3777H63.4033V65.3265H59.4874V64.3777ZM59.5162 70.5883H61.7909C62.0212 70.5883 62.2228 70.5308 62.3668 70.4445C62.5395 70.3583 62.6547 70.2145 62.7411 70.042C62.8275 69.8695 62.8563 69.6395 62.8563 69.4094C62.8563 69.1507 62.8275 68.9494 62.7411 68.7769C62.6547 68.6044 62.5395 68.4606 62.3668 68.3743C62.194 68.2881 62.0212 68.2306 61.7909 68.2306H59.5162V67.2817H61.7621C62.2228 67.2817 62.5971 67.368 62.9138 67.5405C63.2306 67.713 63.4897 67.943 63.6625 68.2593C63.8352 68.5756 63.9216 68.9781 63.9216 69.4094C63.9216 69.8695 63.8352 70.2433 63.6625 70.5595C63.4897 70.8758 63.2594 71.1346 62.9138 71.2784C62.5971 71.4509 62.194 71.5371 61.7621 71.5371H59.5162V70.5883Z" fill="white"/>
<path d="M65.3613 64.3777H66.3691V71.5084H65.3613V64.3777ZM65.8796 67.7993H68.1543C68.3847 67.7993 68.5574 67.7418 68.7302 67.6555C68.9029 67.5405 69.0181 67.3967 69.1045 67.2242C69.1909 67.0517 69.2485 66.8217 69.2485 66.5917C69.2485 66.3329 69.1909 66.1316 69.1045 65.9303C69.0181 65.7291 68.8741 65.5853 68.7302 65.499C68.5574 65.384 68.3847 65.3553 68.1543 65.3553H65.8796V64.4064H68.1255C68.5574 64.4064 68.9317 64.4927 69.2485 64.6652C69.5652 64.8377 69.8243 65.0965 69.9971 65.4415C70.1699 65.7866 70.2562 66.1604 70.2562 66.5917C70.2562 67.023 70.1699 67.3967 69.9971 67.7418C69.8243 68.0581 69.5652 68.3168 69.2485 68.5181C68.9317 68.6906 68.5574 68.7769 68.1255 68.7769H65.8796V67.7993Z" fill="white"/>
<path d="M73.1356 64.3777H73.9994L76.6484 71.5084H75.5542L73.5675 65.7578L71.5807 71.5084H70.4866L73.1356 64.3777ZM71.6959 69.0069H75.4678V69.9557H71.6959V69.0069Z" fill="white"/>
<path d="M77.6273 64.3777H78.6351V71.5084H77.6273V64.3777ZM78.1168 64.3777H82.0327V65.3265H78.1168V64.3777ZM78.1456 70.5883H80.4203C80.6506 70.5883 80.8522 70.5308 80.9962 70.4445C81.1689 70.3583 81.2841 70.2145 81.3705 70.042C81.4569 69.8695 81.4857 69.6395 81.4857 69.4094C81.4857 69.1507 81.4569 68.9494 81.3705 68.7769C81.2841 68.6044 81.1689 68.4606 80.9962 68.3743C80.8234 68.2881 80.6506 68.2306 80.4203 68.2306H78.1456V67.2817H80.3915C80.8522 67.2817 81.2265 67.368 81.5432 67.5405C81.86 67.713 82.1191 67.943 82.2919 68.2593C82.4646 68.5756 82.551 68.9781 82.551 69.4094C82.551 69.8695 82.4646 70.2433 82.2919 70.5595C82.1191 70.8758 81.8888 71.1346 81.5432 71.2784C81.2265 71.4509 80.8234 71.5371 80.3915 71.5371H78.1456V70.5883Z" fill="white"/>
<path d="M85.8046 64.3777H86.6685L89.3175 71.5084H88.2233L86.2365 65.7578L84.2498 71.5084H83.1556L85.8046 64.3777ZM84.3938 69.0069H88.1657V69.9557H84.3938V69.0069Z" fill="white"/>
<path d="M89.1448 64.3777H94.1837V65.3265H89.1448V64.3777ZM91.1603 64.9815H92.1681V71.5371H91.1603V64.9815Z" fill="white"/>
<path d="M95.1051 64.3777H96.1129V71.5084H95.1051V64.3777ZM95.6234 70.5883H97.6965C97.9269 70.5883 98.1284 70.5308 98.2724 70.4445C98.4452 70.3583 98.5603 70.2145 98.6467 70.042C98.7331 69.8695 98.7619 69.6395 98.7619 69.4094C98.7619 69.1507 98.7331 68.9494 98.6467 68.7769C98.5603 68.6044 98.4452 68.4606 98.2724 68.3743C98.0996 68.2881 97.9269 68.2306 97.6965 68.2306H95.6234V67.2817H97.6677C98.1284 67.2817 98.5027 67.368 98.8195 67.5405C99.1362 67.713 99.3953 67.943 99.5681 68.2593C99.7409 68.5756 99.8272 68.9781 99.8272 69.4094C99.8272 69.8695 99.7409 70.2433 99.5681 70.5595C99.3953 70.8758 99.165 71.1346 98.8195 71.2784C98.5027 71.4509 98.0996 71.5371 97.6677 71.5371H95.6234V70.5883ZM101.756 71.5371H100.749V64.4064H101.756V71.5371Z" fill="white"/>
<path d="M103.455 64.3777H104.463V71.5084H103.455V64.3777ZM104.06 70.6171H105.989C106.507 70.6171 106.882 70.5308 107.112 70.3295C107.342 70.1283 107.457 69.8695 107.457 69.5245V69.4957C107.457 69.2657 107.429 69.0357 107.342 68.8631C107.256 68.6906 107.141 68.5469 106.939 68.4606C106.766 68.3743 106.536 68.3168 106.248 68.3168H104.06V67.4255H106.248C106.622 67.4255 106.91 67.3392 107.083 67.1667C107.285 66.9942 107.371 66.7354 107.371 66.3904C107.371 66.0454 107.256 65.7578 107.054 65.5853C106.853 65.4128 106.536 65.3265 106.104 65.3265H104.06V64.4064H106.277C106.738 64.4064 107.141 64.4927 107.429 64.6365C107.745 64.7802 107.976 65.0103 108.12 65.2978C108.264 65.5853 108.35 65.9303 108.35 66.3329C108.35 66.5917 108.292 66.8217 108.206 67.023C108.12 67.2242 107.976 67.4255 107.774 67.5693C107.573 67.713 107.342 67.828 107.054 67.8855C107.342 67.9143 107.601 68.0293 107.803 68.2018C108.004 68.3743 108.177 68.5756 108.292 68.8056C108.408 69.0357 108.465 69.3232 108.465 69.582V69.6107C108.465 69.9845 108.379 70.3295 108.206 70.6458C108.033 70.9333 107.803 71.1634 107.486 71.3359C107.169 71.5084 106.795 71.5659 106.363 71.5659H104.06V70.6171Z" fill="white"/>
<path d="M111.719 64.3777H112.583L115.232 71.5084H114.137L112.151 65.7578L110.164 71.5084H109.07L111.719 64.3777ZM110.279 69.0069H114.051V69.9557H110.279V69.0069Z" fill="white"/>
<path d="M117.247 71.5371H116.24V64.4064H117.247V71.5371ZM116.614 67.5117H119.407V68.4605H116.614V67.5117ZM119.954 71.2783C119.58 71.0483 119.292 70.7608 119.061 70.3582C118.86 69.9557 118.745 69.4956 118.745 68.9781V66.9654C118.745 66.4478 118.86 65.9878 119.061 65.5853C119.263 65.1827 119.551 64.8664 119.954 64.6652C120.328 64.4351 120.76 64.3489 121.278 64.3489C121.768 64.3489 122.229 64.4639 122.603 64.6652C122.977 64.8952 123.265 65.1827 123.495 65.5853C123.697 65.9878 123.812 66.4478 123.812 66.9654V68.9781C123.812 69.4956 123.697 69.9557 123.495 70.3582C123.294 70.7608 123.006 71.0771 122.603 71.2783C122.229 71.5083 121.797 71.5946 121.278 71.5946C120.789 71.5946 120.328 71.5083 119.954 71.2783ZM122.056 70.4157C122.286 70.272 122.459 70.0995 122.574 69.8407C122.689 69.6107 122.747 69.3231 122.747 69.0068V66.9079C122.747 66.5916 122.689 66.3041 122.574 66.0741C122.459 65.844 122.286 65.6428 122.056 65.499C121.825 65.3552 121.566 65.2977 121.278 65.2977C120.99 65.2977 120.731 65.3552 120.501 65.499C120.271 65.6428 120.098 65.8153 119.983 66.0741C119.867 66.3041 119.81 66.5916 119.81 66.9079V69.0068C119.81 69.3231 119.867 69.6107 119.983 69.8407C120.098 70.0707 120.271 70.272 120.501 70.4157C120.731 70.5595 120.99 70.617 121.278 70.617C121.566 70.617 121.825 70.5595 122.056 70.4157Z" fill="white"/>
<path d="M125.252 64.3777H126.26V71.5084H125.252V64.3777ZM125.828 70.5883H132.277V71.5372H125.828V70.5883ZM128.534 64.3777H129.542V71.5084H128.534V64.3777ZM131.817 64.3777H132.825V71.5084H131.817V64.3777ZM132.767 70.5883H133.775V73.0323H132.767V70.5883Z" fill="white"/>
<path d="M139.274 71.5372V65.9304L139.389 66.0454L135.79 71.5372H134.955V64.4065H135.963V70.0996L135.848 69.9846L139.447 64.4065H140.253V71.5372H139.274Z" fill="white"/>
<path d="M143.68 67.4542L145.465 64.4064H146.588L144.227 68.2881L142.298 71.5659H141.175L143.68 67.4542ZM143.737 68.4031L143.593 68.1443L141.261 64.3777H142.384L144.112 67.2817L144.284 67.5405L146.732 71.5084H145.609L143.737 68.4031Z" fill="white"/>
<path d="M45.1482 77.374H46.156V84.5047H45.1482V77.374ZM45.7529 77.374H49.7264V78.3229H45.7529V77.374ZM49.2081 77.374H50.2158V84.5047H49.2081V77.374Z" fill="white"/>
<path d="M51.9722 77.374H52.9799V84.5047H51.9722V77.374ZM52.4905 80.7956H54.7651C54.9955 80.7956 55.1682 80.7381 55.341 80.6519C55.5138 80.5368 55.6289 80.3931 55.7153 80.2206C55.8017 80.048 55.8593 79.818 55.8593 79.588C55.8593 79.3292 55.8017 79.128 55.7153 78.9267C55.6289 78.7254 55.485 78.5816 55.341 78.4954C55.1682 78.3804 54.9955 78.3516 54.7651 78.3516H52.4905V77.4028H54.7363C55.1682 77.4028 55.5426 77.489 55.8593 77.6616C56.176 77.8341 56.4352 78.0928 56.6079 78.4379C56.7807 78.7829 56.8671 79.1567 56.8671 79.588C56.8671 80.0193 56.7807 80.3931 56.6079 80.7381C56.4352 81.0544 56.176 81.3132 55.8593 81.5144C55.5426 81.687 55.1682 81.7732 54.7363 81.7732H52.4905V80.7956Z" fill="white"/>
<path d="M58.3069 77.374H59.3147V84.5047H58.3069V77.374ZM58.7964 77.374H62.9139V78.3229H58.7964V77.374ZM58.7964 80.4793H62.3668V81.4282H58.7964V80.4793ZM58.7964 83.5559H62.9139V84.5047H58.7964V83.5559Z" fill="white"/>
<path d="M63.7201 83.5559H69.9395V84.5047H63.7201V83.5559ZM63.7201 83.5559H64.7279V85.9999H63.7201V83.5559ZM63.7489 83.5559H63.8065C64.2096 83.5559 64.5263 83.3834 64.7567 83.0671C64.987 82.7508 65.1022 82.262 65.1022 81.6582V77.374H66.11V81.7445C66.11 82.262 66.0236 82.7221 65.8508 83.0959C65.6781 83.4696 65.4189 83.7572 65.1022 83.9297C64.7855 84.131 64.3823 84.2172 63.9216 84.2172H63.7777V83.5559H63.7489ZM65.7069 77.374H68.9605V78.3229H65.7069V77.374ZM68.4135 77.374H69.4212V84.5047H68.4135V77.374ZM69.3924 83.5559H70.4002V85.9999H69.3924V83.5559Z" fill="white"/>
<path d="M71.667 77.374H72.6748V84.5047H71.667V77.374ZM72.3005 77.374H76.274V78.3229H72.3005V77.374ZM75.7269 77.374H76.7347V84.5047H75.7269V77.374Z" fill="white"/>
<path d="M78.5199 77.374H79.5277V84.5047H78.5199V77.374ZM79.0094 80.7956H81.2841C81.5144 80.7956 81.6872 80.7381 81.8599 80.6519C82.0327 80.5368 82.1479 80.3931 82.2343 80.2206C82.3206 80.048 82.3782 79.818 82.3782 79.588C82.3782 79.3292 82.3206 79.128 82.2343 78.9267C82.1479 78.7254 82.0039 78.5816 81.8599 78.4954C81.6872 78.3804 81.5144 78.3516 81.2841 78.3516H79.0094V77.4028H81.2553C81.6872 77.4028 82.0615 77.489 82.3782 77.6616C82.695 77.8341 82.9541 78.0928 83.1269 78.4379C83.2996 78.7829 83.386 79.1567 83.386 79.588C83.386 80.0193 83.2996 80.3931 83.1269 80.7381C82.9541 81.0544 82.695 81.3132 82.3782 81.5144C82.0615 81.687 81.6872 81.7732 81.2553 81.7732H79.0094V80.7956Z" fill="white"/>
<path d="M89.1159 84.5047V78.8979L89.2311 79.0129L85.6319 84.5047H84.7969V77.374H85.8046V83.0671L85.6895 82.9521L89.2887 77.374H90.0949V84.5047H89.1159Z" fill="white"/>
<path d="M93.406 81.1981L94.4138 81.4281L92.6862 84.5334H91.5056L93.406 81.1981ZM92.5134 81.3706C92.1967 81.1981 91.9663 80.9393 91.7936 80.623C91.6208 80.3068 91.5344 79.933 91.5344 79.5017C91.5344 79.0704 91.6208 78.6966 91.7936 78.3803C91.9663 78.064 92.1967 77.8053 92.5134 77.6327C92.8301 77.4602 93.1756 77.374 93.6076 77.374H95.9686V78.3228H93.5788C93.3772 78.3228 93.2044 78.3803 93.0605 78.4666C92.9165 78.5528 92.8013 78.6966 92.715 78.8691C92.6286 79.0416 92.5998 79.2429 92.5998 79.5017C92.5998 79.7605 92.6286 79.933 92.715 80.1343C92.8013 80.3355 92.9165 80.4505 93.0605 80.5368C93.2044 80.6231 93.3772 80.6806 93.5788 80.6806H95.9686V81.6294H93.6076C93.1756 81.6294 92.8301 81.5431 92.5134 81.3706ZM95.3928 77.3452H96.4005V84.5047H95.3928V77.3452Z" fill="white"/>
<path d="M97.5811 77.374H102.62V78.3229H97.5811V77.374ZM99.5966 77.9491H100.604V84.5047H99.5966V77.9491Z" fill="white"/>
<path d="M107.889 84.5047V78.8979L108.004 79.0129L104.405 84.5047H103.57V77.374H104.578V83.0671L104.463 82.9521L108.062 77.374H108.868V84.5047H107.889Z" fill="white"/>
<path d="M114.944 84.5048V78.8979L115.059 79.0129L111.46 84.5048H110.625V77.374H111.632V83.0671L111.517 82.9521L115.116 77.374H115.923V84.5048H114.944ZM114.944 75.3613C114.944 75.8501 114.8 76.1952 114.512 76.4827C114.224 76.7415 113.821 76.8852 113.302 76.8852H113.274C112.755 76.8852 112.352 76.7415 112.064 76.4827C111.776 76.2239 111.632 75.8501 111.632 75.3613H112.439C112.439 75.6201 112.525 75.7926 112.669 75.9364C112.813 76.0802 113.014 76.1377 113.274 76.1377H113.302C113.562 76.1377 113.763 76.0802 113.907 75.9364C114.051 75.7926 114.137 75.6201 114.137 75.3613H114.944Z" fill="white"/>
<path fill-rule="evenodd" clip-rule="evenodd" d="M61.3014 11.9612C60.4376 10.8686 59.4298 10.0347 58.3069 9.43091V38.2126C60.8695 38.0688 63.173 37.005 64.843 35.3373C66.6858 33.5546 67.7799 31.1106 67.7799 28.4078V20.3283L62.3956 13.3988L61.3014 11.9612Z" fill="white"/>
<path fill-rule="evenodd" clip-rule="evenodd" d="M110.452 11.9612L104.002 20.3283V28.4078C104.002 31.1106 105.068 33.5546 106.91 35.3373C108.58 37.005 110.913 38.0688 113.504 38.2126V9.43091C112.352 10.0635 111.345 10.8686 110.452 11.9612Z" fill="white"/>
<path fill-rule="evenodd" clip-rule="evenodd" d="M102.275 5.72184L86.3805 26.3377C88.1657 27.9766 90.5268 28.8392 92.859 28.8392C94.2987 28.8392 95.7384 28.4942 97.0917 27.8616L109.732 11.4437C110.74 10.0923 112.007 9.08594 113.389 8.42462V7.99333V2.47276C112.323 2.09898 111.229 1.89771 110.106 1.89771C107.169 1.89771 104.175 3.19159 102.275 5.72184Z" fill="white"/>
<path fill-rule="evenodd" clip-rule="evenodd" d="M29.0817 15.1816C29.456 14.6641 29.9455 14.204 30.4925 13.7727C30.5213 13.7152 30.5789 13.6865 30.6941 13.629C30.8957 13.4852 31.0684 13.3414 31.3276 13.1977C31.4139 13.1114 31.5579 13.0539 31.6731 12.9677C31.8746 12.8814 32.0762 12.7664 32.249 12.6801C32.3929 12.5939 32.5945 12.4789 32.7384 12.4501C32.94 12.3638 33.1128 12.3063 33.2567 12.2201C33.4583 12.1626 33.6598 12.1338 33.8326 12.0188C34.0342 11.9613 34.1781 11.9325 34.3509 11.875C34.5812 11.8175 34.7828 11.7888 35.0131 11.7888C35.1571 11.7313 35.3587 11.7025 35.5026 11.7025C35.8481 11.645 36.1649 11.645 36.5104 11.645C36.568 11.645 36.5968 11.645 36.6544 11.645C36.7119 11.645 36.7407 11.645 36.7407 11.645C37.0863 11.645 37.3742 11.645 37.7197 11.7025C37.8061 11.7025 37.9213 11.7025 38.0077 11.7313C38.238 11.7313 38.4396 11.7888 38.6411 11.8175L55.1398 38.2415H48.834C45.4652 38.2415 42.4419 36.5163 40.5991 33.6698L39.0154 31.1107L32.5369 20.6447L29.0817 15.1816Z" fill="white"/>
<path fill-rule="evenodd" clip-rule="evenodd" d="M36.7117 10.7249H36.6542C36.5966 10.7249 36.5102 10.7249 36.4526 10.7249C36.0783 10.7824 35.7328 10.7824 35.3584 10.8111C35.1569 10.8111 35.0129 10.8686 34.8402 10.8974C34.6098 10.9549 34.3507 10.9836 34.1203 11.0411C33.9188 11.0986 33.746 11.1274 33.4869 11.1849C33.2853 11.3287 33.1126 11.3862 32.911 11.4149C32.6807 11.5012 32.4791 11.6162 32.2775 11.7025C32.076 11.7887 31.932 11.8462 31.7593 11.9325C31.5577 12.0187 31.3274 12.1625 31.1258 12.335C30.9818 12.3638 30.8379 12.4788 30.6939 12.565C30.4923 12.7088 30.262 12.8526 30.0317 13.0251C29.9453 13.1113 29.8301 13.1689 29.8013 13.2551C29.571 13.4564 29.3406 13.6577 29.0815 13.8877C29.0239 13.9164 28.9951 14.0314 28.9375 14.0889C28.7071 14.319 28.448 14.6065 28.2752 14.8653L28.1889 14.9515L28.0449 15.1528C27.9009 15.3541 27.757 15.5841 27.613 15.7854L24.5033 20.7309H24.2154C20.8465 20.7309 17.6792 18.8907 15.894 16.0154L22.7181 5.11803C23.9562 3.10533 26.1445 1.89771 28.592 1.89771C30.9818 1.89771 33.1989 3.10533 34.4658 5.11803L38.0075 10.8111C37.9787 10.8111 37.9787 10.8111 37.9211 10.8111C37.5468 10.7824 37.1149 10.7249 36.7117 10.7249Z" fill="white"/>
<path fill-rule="evenodd" clip-rule="evenodd" d="M36.2511 30.2769L30.8091 21.536H25.0216H24.0138C20.5586 21.4498 17.2761 19.6671 15.347 16.8206L12.3812 21.4785L1.9292 37.9827H8.23498C11.6038 37.9827 14.6271 36.2575 16.4123 33.4685L18.3991 30.3057H36.2511V30.2769Z" fill="white"/>
<path fill-rule="evenodd" clip-rule="evenodd" d="M126.115 12.1626V28.6093C126.115 33.8998 121.883 38.184 116.642 38.299V22.0248C116.642 16.6768 120.875 12.3639 126.115 12.1626Z" fill="white"/>
<path fill-rule="evenodd" clip-rule="evenodd" d="M152.318 11.2999H126.461C122.027 11.2999 118.255 14.0027 116.642 17.7981V11.7025C116.642 7.2745 119.522 3.53662 123.524 2.27149C124.388 2.04147 125.367 1.89771 126.317 1.89771H143.536C148.344 2.41526 152.116 6.41191 152.318 11.2999Z" fill="white"/>
<path fill-rule="evenodd" clip-rule="evenodd" d="M153.066 28.5517V11.7025V11.2999C152.922 7.07323 150.331 3.47912 146.703 1.89771H152.778C154.448 1.89771 156.032 2.27149 157.385 2.99032C160.466 4.65799 162.539 7.87832 162.539 11.7025V38.2702C160.034 38.2127 157.731 37.2063 155.946 35.4811C154.074 33.6409 153.066 31.1969 153.066 28.5517Z" fill="white"/>
<path fill-rule="evenodd" clip-rule="evenodd" d="M85.7183 26.884L85.6607 26.8265L69.3924 5.69309L69.45 5.7506C67.492 3.19159 64.5839 1.89771 61.6182 1.89771C60.524 1.89771 59.4011 2.09898 58.3357 2.47276V8.2521V8.45337C59.689 9.11469 60.9847 10.1498 61.9349 11.5299L68.5862 20.1271L80.5355 35.6536C81.8312 37.3501 83.7892 38.2989 85.9199 38.2989H86.2078C87.4171 38.2414 88.3097 37.9539 89.1448 37.5226C89.951 37.0338 90.7284 36.3149 91.4482 35.3949L96.1704 29.2417C95.105 29.5868 94.0396 29.7305 92.9455 29.7305C90.2965 29.7018 87.6763 28.6954 85.7183 26.884Z" fill="white"/>
</g>
<defs>
<clipPath id="clip0">
<rect width="163" height="86" fill="white"/>
</clipPath>
</defs>
</svg>
